<svg xmlns="http://www.w3.org/2000/svg" width="512" height="512" viewBox="0 0 24 24"><g style="fill:none;stroke:#fff;stroke-width:5;stroke-linecap:round;stroke-linejoin:round"><path d="M18 3a5 5 0 0 1 5 5v8a5 5 0 0 1-5 5H6a5 5 0 0 1-5-5V8a5 5 0 0 1 5-5ZM9 9v6a1 1 0 0 0 1.514.857l5-3a1 1 0 0 0 0-1.714l-5-3A1 1 0 0 0 9 9" style="stroke:#ffe;stroke-opacity:1" transform="matrix(.88463 0 0 .88463 1.384 1.384)"/></g><path d="M18 3a5 5 0 0 1 5 5v8a5 5 0 0 1-5 5H6a5 5 0 0 1-5-5V8a5 5 0 0 1 5-5ZM9 9v6a1 1 0 0 0 1.514.857l5-3a1 1 0 0 0 0-1.714l-5-3A1 1 0 0 0 9 9" style="fill:#112;fill-opacity:1" transform="matrix(.88463 0 0 .88463 1.384 1.384)"/></svg>